<svg id="plus-svgrepo-com" xmlns="http://www.w3.org/2000/svg" width="66.471" height="66.471" viewBox="0 0 66.471 66.471">
  <g id="Group_119" data-name="Group 119" transform="translate(0 0)">
    <path id="Path_52" data-name="Path 52" d="M56.748,56.748a33.252,33.252,0,1,0-47.026,0A33.293,33.293,0,0,0,56.748,56.748Zm-44.68-44.68a29.935,29.935,0,1,1,0,42.334A29.962,29.962,0,0,1,12.068,12.068Z" transform="translate(0 0)" fill="#7c7c7c"/>
    <path id="Path_53" data-name="Path 53" d="M166.006,178.195a1.7,1.7,0,0,0,1.18-.488,1.671,1.671,0,0,0,.488-1.18V167.4H176.8a1.7,1.7,0,0,0,1.18-.488,1.671,1.671,0,0,0,.488-1.18,1.644,1.644,0,0,0-1.654-1.654h-9.126v-9.126a1.654,1.654,0,1,0-3.309,0v9.126h-9.126a1.654,1.654,0,0,0,0,3.309h9.126v9.126A1.611,1.611,0,0,0,166.006,178.195Z" transform="translate(-132.771 -132.511)" fill="#7c7c7c"/>
  </g>
</svg>
